# xmcd
#
# Track frame offsets:
#	150
#	12068
#	24945
#	37885
#	49233
#	61957
#	75035
#	87918
#	99375
#	111472
#	120746
#	133457
#	146425
#	159452
#	171112
#	182786
#	191502
#	204898
#
# Disc length: 2890 seconds
#
# Revision: 1
# Processed by: cddbd v1.5.1PL0 Copyright (c) Steve Scherf et al.
# Submitted via: audiograbber 1.83.01
#
DISCID=e30b4812
DTITLE=div - Country History#4
DYEAR=2005
DGENRE=Country
TTITLE0=Adolph Hofner - Alamo Rag
TTITLE1=Bill Mounce - I Found A New Baby
TTITLE2=Bill Boyo - Jitterburg Jive
TTITLE3=Modern Mountaineers - Marie Jane
TTITLE4=Johnnie Lee Wills - Milk Cow Blues
TTITLE5=Shelley Lee Alley - The Big House Blues
TTITLE6=Louise Massey - Squeeze Box Polka
TTITLE7=Roy Acuff - Fieball Mail
TTITLE8=Ted Daffan - Born To Lose
TTITLE9=Gene Autry - In Old Capistrano
TTITLE10=Foy Willing - Texas Blues
TTITLE11=Spade Cooley - Shame On You
TTITLE12=Curly Williams - Southern Belle
TTITLE13=Bob Wills - Roly Poly
TTITLE14=Bill Monroe - Rocky Road Blues
TTITLE15=Johnny Bond - Out On The Open Range
TTITLE16=Ocie Stockard - O.P.A. Blues
TTITLE17=Merle Travis - No Vacancy
EXTD=
EXTT0=
EXTT1=
EXTT2=
EXTT3=
EXTT4=
EXTT5=
EXTT6=
EXTT7=
EXTT8=
EXTT9=
EXTT10=
EXTT11=
EXTT12=
EXTT13=
EXTT14=
EXTT15=
EXTT16=
EXTT17=
PLAYORDER=
